<?xml version="1.0" encoding="UTF-8"?><svg xmlns="http://www.w3.org/2000/svg" viewBox="0 0 538.45 176.86"><defs><style>.d{fill:#fff;}.e{fill:#1d1d1b;}.f{fill:none;stroke:#1d1d1b;stroke-miterlimit:22.93;stroke-width:.57px;}</style></defs><g id="a"/><g id="b"><g id="c"><rect class="e" x=".28" y=".28" width="176.3" height="176.3" rx="7.89" ry="7.89"/><rect class="f" x=".28" y=".28" width="176.3" height="176.3" rx="7.89" ry="7.89"/><polygon class="d" points="31.81 36.19 65.55 36.19 89.09 111.39 112.29 36.19 145.05 36.19 106.26 140.67 71.28 140.67 31.81 36.19"/><path class="e" d="M510.32,126.73c-5.6,0-10.97-.9-16.11-2.69-5.14-1.8-9.11-4.17-11.91-7.11l3.13-6.14c2.73,2.73,6.36,4.94,10.88,6.63,4.53,1.69,9.2,2.53,14.01,2.53,6.75,0,11.82-1.24,15.19-3.72,3.38-2.48,5.07-5.69,5.07-9.64,0-3.02-.92-5.42-2.75-7.22-1.83-1.8-4.08-3.18-6.74-4.15-2.66-.97-6.36-2.03-11.1-3.18-5.68-1.44-10.2-2.82-13.58-4.15-3.38-1.33-6.27-3.36-8.68-6.09-2.41-2.73-3.61-6.43-3.61-11.1,0-3.81,1.01-7.27,3.02-10.4,2.01-3.13,5.1-5.62,9.27-7.49,4.17-1.87,9.34-2.8,15.52-2.8,4.31,0,8.53,.59,12.66,1.78,4.13,1.19,7.71,2.82,10.72,4.9l-2.69,6.36c-3.16-2.08-6.54-3.65-10.13-4.69-3.59-1.04-7.11-1.56-10.56-1.56-6.61,0-11.58,1.28-14.93,3.83-3.34,2.55-5.01,5.84-5.01,9.86,0,3.02,.92,5.44,2.75,7.27,1.83,1.83,4.13,3.23,6.9,4.2,2.77,.97,6.48,2.03,11.15,3.18,5.53,1.37,10,2.71,13.42,4.04,3.41,1.33,6.3,3.34,8.68,6.03,2.37,2.69,3.56,6.34,3.56,10.94,0,3.81-1.02,7.27-3.07,10.4-2.05,3.13-5.19,5.6-9.43,7.44-4.24,1.83-9.45,2.75-15.63,2.75m-75.76,0c-9.77,0-17.39-2.8-22.85-8.41-5.46-5.6-8.19-13.76-8.19-24.46V50.65h7.97v42.89c0,8.76,1.98,15.3,5.93,19.61,3.95,4.31,9.66,6.47,17.13,6.47s13.29-2.16,17.24-6.47c3.95-4.31,5.93-10.85,5.93-19.61V50.65h7.76v43.21c0,10.7-2.71,18.86-8.14,24.46-5.42,5.6-13.02,8.41-22.79,8.41Zm-74.9,0c-7.47,0-14.21-1.65-20.21-4.96s-10.7-7.88-14.12-13.74c-3.41-5.86-5.12-12.41-5.12-19.67s1.71-13.81,5.12-19.67c3.41-5.86,8.14-10.44,14.17-13.74,6.03-3.3,12.79-4.96,20.26-4.96,5.6,0,10.78,.93,15.52,2.8,4.74,1.87,8.76,4.6,12.07,8.19l-5.06,5.06c-5.89-5.96-13.33-8.94-22.31-8.94-5.96,0-11.39,1.37-16.27,4.1-4.89,2.73-8.71,6.47-11.48,11.21-2.77,4.74-4.15,10.06-4.15,15.95s1.38,11.21,4.15,15.95c2.77,4.74,6.59,8.48,11.48,11.21,4.89,2.73,10.31,4.1,16.27,4.1,9.05,0,16.49-3.02,22.31-9.05l5.06,5.06c-3.3,3.59-7.35,6.34-12.12,8.24-4.78,1.9-9.97,2.86-15.57,2.86Zm-65.31-76.08h7.97V126.08h-7.97V50.65Zm-10.88,0l-33.41,75.44h-7.87l-33.41-75.44h8.62l28.88,65.52,29.1-65.52h8.08Z"/></g></g></svg>